<svg width="600" height="400" viewBox="0 0 600 400" xmlns="http://www.w3.org/2000/svg">
  <rect width="600" height="400" fill="#f8f9fa"/>

  <!-- Physical AI Concept -->
  <g transform="translate(100, 100)">
    <circle cx="0" cy="0" r="60" fill="#4a90e2" opacity="0.2"/>
    <circle cx="0" cy="0" r="50" fill="#4a90e2" opacity="0.4"/>
    <text x="0" y="-10" text-anchor="middle" font-family="Arial" font-size="14" fill="#ffffff">Physical</text>
    <text x="0" y="10" text-anchor="middle" font-family="Arial" font-size="14" fill="#ffffff">AI</text>
    <text x="0" y="30" text-anchor="middle" font-family="Arial" font-size="10" fill="#ffffff">Algorithms</text>
    <text x="0" y="45" text-anchor="middle" font-family="Arial" font-size="10" fill="#ffffff">in Motion</text>
  </g>

  <!-- Humanoid Robotics Concept -->
  <g transform="translate(450, 100)">
    <circle cx="0" cy="0" r="60" fill="#e74c3c" opacity="0.2"/>
    <circle cx="0" cy="0" r="50" fill="#e74c3c" opacity="0.4"/>
    <text x="0" y="-10" text-anchor="middle" font-family="Arial" font-size="14" fill="#ffffff">Humanoid</text>
    <text x="0" y="10" text-anchor="middle" font-family="Arial" font-size="14" fill="#ffffff">Robotics</text>
    <text x="0" y="30" text-anchor="middle" font-family="Arial" font-size="10" fill="#ffffff">Embodied</text>
    <text x="0" y="45" text-anchor="middle" font-family="Arial" font-size="10" fill="#ffffff">Intelligence</text>
  </g>

  <!-- Connection between concepts -->
  <line x1="160" y1="100" x2="390" y2="100" stroke="#95a5a6" stroke-width="2" stroke-dasharray="5,5"/>
  <text x="300" y="80" text-anchor="middle" font-family="Arial" font-size="12" fill="#7f8c8d">Bridges</text>

  <!-- Central concept -->
  <g transform="translate(300, 250)">
    <circle cx="0" cy="0" r="70" fill="#9b59b6" opacity="0.3"/>
    <circle cx="0" cy="0" r="60" fill="#9b59b6" opacity="0.5"/>
    <circle cx="0" cy="0" r="50" fill="#9b59b6" opacity="0.7"/>
    <text x="0" y="-15" text-anchor="middle" font-family="Arial" font-size="16" fill="#ffffff" font-weight="bold">Physical AI</text>
    <text x="0" y="5" text-anchor="middle" font-family="Arial" font-size="16" fill="#ffffff" font-weight="bold">&amp;</text>
    <text x="0" y="25" text-anchor="middle" font-family="Arial" font-size="16" fill="#ffffff" font-weight="bold">Humanoid</text>
    <text x="0" y="45" text-anchor="middle" font-family="Arial" font-size="16" fill="#ffffff" font-weight="bold">Robotics</text>
  </g>

  <!-- Arrows showing integration -->
  <line x1="150" y1="160" x2="270" y2="220" stroke="#2c3e50" stroke-width="2" marker-end="url(#arrowhead)"/>
  <line x1="450" y1="160" x2="330" y2="220" stroke="#2c3e50" stroke-width="2" marker-end="url(#arrowhead)"/>

  <!-- Arrowhead definition -->
  <defs>
    <marker id="arrowhead" markerWidth="10" markerHeight="7" refX="9" refY="3.5" orient="auto">
      <polygon points="0 0, 10 3.5, 0 7" fill="#2c3e50" />
    </marker>
  </defs>
</svg>